<svg width="144" height="23" viewBox="0 0 144 23" fill="none" xmlns="http://www.w3.org/2000/svg">
<path d="M12.9766 3.67578C12.9766 4.19922 12.375 4.64453 11.1719 5.01172C10.1094 5.33984 8.98438 5.50391 7.79688 5.50391C6.6875 5.50391 5.77734 5.29688 5.06641 4.88281C4.24609 4.39844 3.83594 3.70312 3.83594 2.79688C3.83594 1.625 5.1875 1.03906 7.89062 1.03906C9.39062 1.03906 10.6289 1.31641 11.6055 1.87109C12.5195 2.38672 12.9766 2.98828 12.9766 3.67578ZM13.0703 20.293C11.4844 20.0039 9.79688 19.8594 8.00781 19.8594C6.28125 19.8594 3.86719 20.1445 0.765625 20.7148C0.882812 20.1367 1.01562 19.4648 1.16406 18.6992C2.41406 18.5508 3.22656 18.2539 3.60156 17.8086C3.98438 17.3555 4.30469 16.5195 4.5625 15.3008C4.8125 14.1445 4.9375 13.0156 4.9375 11.9141C4.9375 10.7422 4.44141 10.1562 3.44922 10.1562C3.13672 10.1562 2.83984 10.1914 2.55859 10.2617C2.12891 9.31641 1.91406 8.64062 1.91406 8.23438C5.11719 8.21094 8.10938 7.68359 10.8906 6.65234C10.9219 6.67578 10.9375 6.74219 10.9375 6.85156C10.9375 7.02344 10.8984 7.33594 10.8203 7.78906C10.3203 10.5547 10.0703 12.8555 10.0703 14.6914C10.0703 15.9648 10.2227 16.7969 10.5273 17.1875C10.7148 17.4297 10.9805 17.5508 11.3242 17.5508C11.7148 17.5508 12.1602 17.4453 12.6602 17.2344C12.8008 17.1797 12.8828 17.2461 12.9062 17.4336C12.9922 18.1133 13.0469 19.0664 13.0703 20.293ZM42.7422 9.39453C42.7422 12.3164 41.1719 15.125 38.0312 17.8203L41.2773 18.4648C41.4414 18.7773 41.6719 19.2422 41.9688 19.8594C41.0938 19.7969 39.8359 19.7656 38.1953 19.7656C36.6406 19.7656 34.9883 19.7891 33.2383 19.8359C33.8555 18.9141 34.5312 17.4297 35.2656 15.3828C36.0703 13.1328 36.4727 11.4062 36.4727 10.2031C36.4727 9.26562 36.1992 8.79688 35.6523 8.79688C34.7461 8.79688 33.7344 9.72656 32.6172 11.5859C31.6562 13.1719 30.9102 14.8867 30.3789 16.7305C30.3789 18.7695 30.4805 20.0586 30.6836 20.5977C30.9883 20.7305 31.5664 20.9727 32.418 21.3242C32.332 21.543 32.1875 21.9336 31.9844 22.4961C29.3125 21.9336 26.9688 21.3672 24.9531 20.7969C25.8203 18.8594 26.2539 16.4336 26.2539 13.5195C26.2539 10.3867 25.7227 8.82031 24.6602 8.82031C23.957 8.82031 23.2812 9.44141 22.6328 10.6836C22.0078 11.8867 21.5742 13.3359 21.332 15.0312C21.3477 16.0156 21.7148 17.9453 22.4336 20.8203C20.8945 20.1484 19.2773 19.8125 17.582 19.8125C16.0898 19.8125 15.0586 20.082 14.4883 20.6211L14.3711 17.8203C14.6602 17.6562 15.0195 17.5742 15.4492 17.5742C15.9258 17.5742 16.4688 17.6953 17.0781 17.9375C16.5781 16.4219 16.1719 14.5508 15.8594 12.3242C15.5547 10.1992 15.4023 8.25391 15.4023 6.48828V5.98438C15.4023 5.32812 15.1406 4.94141 14.6172 4.82422C14.0938 4.78516 13.5703 4.74609 13.0469 4.70703C12.7578 4.66016 12.6133 4.07031 12.6133 2.9375C12.6133 2.875 12.6953 2.84375 12.8594 2.84375C13.75 2.84375 16.7812 2.65234 21.9531 2.26953C21.1719 4.49609 20.7812 6.85547 20.7812 9.34766C20.7812 9.83984 20.8047 10.2539 20.8516 10.5898C21.9297 6.73828 23.9766 4.08203 26.9922 2.62109C27.6875 2.28516 28.2891 2.11719 28.7969 2.11719C30.4609 2.11719 31.293 3.77344 31.293 7.08594C31.293 8.27344 31.1875 9.57031 30.9766 10.9766C31.4375 9.9375 32.3086 8.61719 33.5898 7.01562C35.043 5.21094 36.6367 4.30859 38.3711 4.30859C39.6055 4.30859 40.6406 4.78125 41.4766 5.72656C42.3203 6.69531 42.7422 7.91797 42.7422 9.39453ZM64.6328 14.5273C64.6328 14.9336 64.5039 15.4766 64.2461 16.1562C63.582 17.9375 62.3086 19.3086 60.4258 20.2695C58.7773 21.1133 56.9219 21.5352 54.8594 21.5352C52.0703 21.5352 49.9648 20.793 48.543 19.3086C47.2539 17.9648 46.6094 16.125 46.6094 13.7891C46.6094 11.9219 47.0508 9.95703 47.9336 7.89453C48.5508 6.47266 49.1797 5.35547 49.8203 4.54297C47.5859 4.79297 45.5859 5.61719 43.8203 7.01562C43.7266 7.11719 43.6641 7.10938 43.6328 6.99219C43.4688 5.94531 43.2539 4.24219 42.9883 1.88281C42.9961 1.83594 43.043 1.79688 43.1289 1.76562C49.3164 2.28906 55.7578 2.55078 62.4531 2.55078C62.5859 2.55078 62.6328 2.63281 62.5938 2.79688C61.7734 6.02344 61.2695 8.60547 61.082 10.543C60.5195 10.457 59.793 10.3125 58.9023 10.1094C58.4805 9.96875 58.2695 9.75391 58.2695 9.46484C58.2695 9.30859 58.3281 8.96094 58.4453 8.42188C58.5703 7.875 58.6328 7.46875 58.6328 7.20312C58.6328 6.82031 58.5117 6.55078 58.2695 6.39453C56.8711 5.47266 55.7617 4.95312 54.9414 4.83594C53.5273 7.5 52.8203 10.4492 52.8203 13.6836C52.8203 15.4805 53.0898 16.957 53.6289 18.1133C54.207 19.3711 55.0039 20 56.0195 20C56.7773 20 57.6094 19.6992 58.5156 19.0977C59.3594 18.5273 59.7812 18.0664 59.7812 17.7148C59.7812 17.5742 59.7344 17.5039 59.6406 17.5039C58.4609 17.3242 57.4492 16.9375 56.6055 16.3438C55.6055 15.6484 55.1055 14.8047 55.1055 13.8125C55.1055 13.2812 55.457 12.8438 56.1602 12.5C56.8711 12.1562 57.832 11.9844 59.043 11.9844C59.582 11.9844 60.2148 12.0312 60.9414 12.125C63.4023 12.4531 64.6328 13.2539 64.6328 14.5273ZM77.3008 20.2109C77.3008 20.3125 77.2461 20.3633 77.1367 20.3633C77.0508 20.3633 76.3516 20.2969 75.0391 20.1641C73.7344 20.0391 72.6484 19.9766 71.7812 19.9766C70.375 19.9766 67.9023 20.2656 64.3633 20.8438C64.3633 20.5547 64.4766 19.8477 64.7031 18.7227C64.7109 18.707 65.0469 18.6367 65.7109 18.5117C66.4297 18.3789 66.9258 18.1641 67.1992 17.8672C67.4023 17.6484 67.6602 16.4492 67.9727 14.2695C68.3242 11.9023 68.5 9.82812 68.5 8.04688C68.5 6.48438 68.3398 5.40625 68.0195 4.8125C67.9492 4.64844 67.7891 4.56641 67.5391 4.56641C67.3594 4.56641 67.1211 4.61719 66.8242 4.71875C66.5273 4.8125 66.3555 4.85938 66.3086 4.85938C66.1758 4.85938 65.9453 4.62109 65.6172 4.14453C65.2969 3.66797 65.1367 3.3125 65.1367 3.07812C65.1367 2.96875 65.2812 2.91406 65.5703 2.91406C66.6172 2.91406 68.3164 2.78516 70.668 2.52734C73.3633 2.23828 75.3438 1.92578 76.6094 1.58984C76.6562 1.54297 76.6797 1.74219 76.6797 2.1875C76.6797 2.59375 76.6094 2.82813 76.4688 2.89062C75.4297 3.3125 74.7383 4.19531 74.3945 5.53906C74.207 6.30469 74.0234 8.08594 73.8438 10.8828C73.8125 11.3906 73.7969 11.8359 73.7969 12.2188C73.7969 14.9219 74.1094 16.6172 74.7344 17.3047C74.9141 17.5 75.1641 17.5977 75.4844 17.5977C75.7109 17.5977 76.0078 17.5391 76.375 17.4219C76.75 17.2969 76.9648 17.2344 77.0195 17.2344C77.0898 17.2344 77.1367 17.3477 77.1602 17.5742C77.2539 18.6289 77.3008 19.5078 77.3008 20.2109ZM98.9336 9.82812C98.9336 12.3594 96.7422 13.7812 92.3594 14.0938C92.4141 16.4297 93.3281 17.9258 95.1016 18.582C95.5234 18.7461 96 18.8281 96.5312 18.8281C96.6953 18.8281 97.0156 18.8047 97.4922 18.7578C97.4922 18.8203 97.3867 19.0312 97.1758 19.3906C96.9102 19.8516 96.5859 20.3125 96.2031 20.7734C94.2891 20.2734 92.3906 20.0234 90.5078 20.0234C88.4062 20.0234 85.9023 20.3359 82.9961 20.9609C82.4805 20.3906 81.9219 19.7188 81.3203 18.9453C81.1953 18.7812 81.2344 18.6992 81.4375 18.6992C81.4219 18.6992 81.5977 18.7188 81.9648 18.7578C82.332 18.7891 82.6914 18.8047 83.043 18.8047C84.2148 18.8047 84.9297 18.7148 85.1875 18.5352C85.8594 18.0742 86.1953 17.457 86.1953 16.6836C86.1953 16.0742 85.9531 15.2344 85.4688 14.1641C85.3125 14.1953 85.1211 14.2109 84.8945 14.2109C82.8633 14.2109 81.1836 13.6836 79.8555 12.6289C78.6211 11.6445 78.0039 10.5 78.0039 9.19531C78.0039 7.32812 79.3477 5.77734 82.0352 4.54297C82.0742 4.52734 82.0898 4.50781 82.082 4.48438C82.0664 4.45312 82.0273 4.43359 81.9648 4.42578C81.0664 4.30078 79.7461 3.98047 78.0039 3.46484C77.8945 3.44141 77.8633 3.35938 77.9102 3.21875C78.1836 2.49219 78.5195 1.89453 78.918 1.42578C78.9883 1.33984 79.0781 1.31641 79.1875 1.35547C80.8594 1.98047 83.332 2.86719 86.6055 4.01562C86.7773 4.07031 86.793 4.13281 86.6523 4.20312C84.4102 5.3125 83.2891 6.69922 83.2891 8.36328C83.2891 10.1836 84.8164 11.0938 87.8711 11.0938C88.4727 11.0938 88.9531 11.0781 89.3125 11.0469C92.6172 10.75 94.3516 9.54297 94.5156 7.42578C94.5312 7.36328 94.5391 7.25781 94.5391 7.10938C94.5391 6.58594 94.4219 6.00781 94.1875 5.375C93.9375 4.70313 93.6172 4.14453 93.2266 3.69922C93.4141 3.69922 92.3086 3.66797 89.9102 3.60547C89.6445 2.95703 89.4062 2.19922 89.1953 1.33203C91.2031 1.48047 94.3633 1.66406 98.6758 1.88281C98.5117 2.33594 98.2773 2.91016 97.9727 3.60547C97.9023 3.61328 97.1016 3.62891 95.5703 3.65234C97.8125 6.01953 98.9336 8.07812 98.9336 9.82812ZM122.277 17.9609C122.027 18.4219 121.637 19.1172 121.105 20.0469C119.824 19.9844 118.93 19.9531 118.422 19.9531C116.664 19.9531 114.742 20.1289 112.656 20.4805C112.852 19.1367 112.949 17.8086 112.949 16.4961C112.949 15.0508 112.828 13.9219 112.586 13.1094C111.297 12.9844 109.289 12.7695 106.562 12.4648C106.305 13.3789 106.008 14.2969 105.672 15.2188C105.289 16.2734 104.875 17.1719 104.43 17.9141C104.891 18.0234 106.082 18.125 108.004 18.2188C107.855 19.2266 107.781 20.1484 107.781 20.9844C106.008 20.3906 104.352 19.9023 102.812 19.5195C101.789 19.2617 100.477 18.9883 98.875 18.6992C99.0938 18.418 99.3594 18.0586 99.6719 17.6211L100.293 16.7656C100.574 16.8828 101.023 17.082 101.641 17.3633C102.82 15.7383 103.883 13.3789 104.828 10.2852C105.828 7.04297 106.367 4.37891 106.445 2.29297C107.609 2.15234 108.688 1.97656 109.68 1.76562C110.703 1.53906 111.809 1.22656 112.996 0.828125C114.152 2.71094 115.422 5.55078 116.805 9.34766C117.438 11.1836 118.277 13.6133 119.324 16.6367C119.473 17.043 119.906 17.3594 120.625 17.5859C121.18 17.7109 121.73 17.8359 122.277 17.9609ZM113.324 7.47266C113.324 6.40234 112.598 5.86719 111.145 5.86719C110.09 5.86719 109.137 6.14844 108.285 6.71094C107.395 7.29688 106.949 7.97266 106.949 8.73828C106.949 9.75391 107.82 10.2617 109.562 10.2617C112.07 10.2617 113.324 9.33203 113.324 7.47266ZM143.688 16.1094C143.688 16.4453 143.633 16.7891 143.523 17.1406C143.211 18.1172 142.441 18.9531 141.215 19.6484C139.832 20.4297 138.176 20.8203 136.246 20.8203C135.238 20.8203 133.738 20.6719 131.746 20.375C129.762 20.0781 128.262 19.9297 127.246 19.9297C125.598 19.9297 123.805 20.082 121.867 20.3867C121.812 20.3945 121.77 20.3828 121.738 20.3516C121.707 20.3203 121.695 20.2656 121.703 20.1875C121.984 17.5391 122.703 15.3164 123.859 13.5195C125.188 11.4648 126.957 10.2266 129.168 9.80469C133.535 8.96094 135.848 7.0625 136.105 4.10938C135.277 4.07031 134.18 3.83203 132.812 3.39453C131.875 3.08984 131.027 2.9375 130.27 2.9375C129.793 2.9375 129.352 2.99609 128.945 3.11328C128.547 3.22266 128.348 3.33984 128.348 3.46484C128.348 3.56641 128.422 3.62891 128.57 3.65234C130.891 4.08984 132.051 4.90625 132.051 6.10156C132.051 6.67969 131.613 7.15234 130.738 7.51953C129.902 7.87109 128.875 8.04688 127.656 8.04688C124.953 8.04688 123.602 7.33594 123.602 5.91406C123.602 5.64062 123.656 5.35156 123.766 5.04688C124.547 2.92188 126.914 1.85938 130.867 1.85938C131.758 1.85938 133.074 2.01172 134.816 2.31641C136.559 2.62109 137.875 2.77344 138.766 2.77344C139.25 2.77344 140.141 2.69922 141.438 2.55078C141.531 2.52734 141.578 2.625 141.578 2.84375C141.578 5.48438 140.996 7.51953 139.832 8.94922C138.715 10.3242 136.953 11.2461 134.547 11.7148C132.766 12.0664 131.332 12.9805 130.246 14.457C129.52 15.4414 129.023 16.5273 128.758 17.7148C128.922 17.6992 129.148 17.6914 129.438 17.6914C130.398 17.6914 131.5 17.9062 132.742 18.3359C134.133 18.8047 135.164 19.0703 135.836 19.1328C136.008 19.1484 136.266 19.1562 136.609 19.1562C137.859 19.1562 138.484 18.9727 138.484 18.6055C138.484 18.3789 137.859 18.1328 136.609 17.8672C135.797 17.6953 135.184 17.4727 134.77 17.1992C134.137 16.793 133.734 16.1836 133.562 15.3711C133.547 15.293 133.539 15.2031 133.539 15.1016C133.539 14.4609 133.992 13.9258 134.898 13.4961C135.844 13.0508 137.07 12.8281 138.578 12.8281C138.93 12.8281 139.375 12.8516 139.914 12.8984C141.133 13.0078 142.082 13.3711 142.762 13.9883C143.379 14.5664 143.688 15.2734 143.688 16.1094Z" fill="#0066A4"/>
</svg>
